<svg version="1.0" xmlns="http://www.w3.org/2000/svg"
 width="512.000000pt" height="512.000000pt" viewBox="0 0 512.000000 512.000000"
 preserveAspectRatio="xMidYMid meet">
    <g transform="translate(0.000000,512.000000) scale(0.100000,-0.100000)"
fill="#000000" stroke="none">
        <path d="M1955 5105 c-193 -42 -367 -165 -457 -322 l-30 -53 -86 0 c-173 -1
-292 -33 -388 -106 -40 -31 -43 -31 -180 -37 -163 -6 -225 -20 -350 -82 -149
-73 -286 -217 -353 -370 -12 -27 -31 -86 -42 -130 -18 -77 -19 -135 -19 -1710
0 -1575 1 -1633 19 -1710 11 -44 30 -102 42 -130 63 -144 201 -293 336 -363
135 -70 196 -84 386 -90 165 -4 168 -4 192 18 33 31 33 79 2 108 -21 20 -34
22 -153 22 -156 0 -241 17 -343 67 -104 51 -212 159 -264 263 -72 145 -67 17
-67 1815 0 1412 2 1628 15 1680 67 264 316 464 579 465 42 0 47 -2 41 -17 -62
-150 -48 -333 37 -465 40 -64 135 -150 200 -182 113 -55 122 -56 1023 -56 901
0 910 1 1023 56 65 32 160 118 200 182 85 133 99 314 37 466 -8 18 -4 19 71
13 156 -12 305 -85 408 -199 55 -60 121 -179 132 -234 6 -30 4 -33 -49 -57
-95 -43 -148 -144 -127 -241 10 -48 10 -50 -29 -100 -21 -28 -309 -395 -640
-816 -330 -421 -613 -790 -629 -820 -24 -49 -27 -66 -27 -157 l0 -103 -261 0
c-240 0 -264 -2 -285 -18 -33 -27 -30 -78 5 -109 27 -23 27 -23 317 -23 l289
0 -30 -42 c-38 -52 -38 -72 0 -110 40 -40 72 -33 125 28 l40 45 40 -17 c27
-12 66 -18 120 -18 100 1 176 28 240 87 26 23 238 287 474 587 235 300 431
544 436 543 6 -2 11 -377 13 -995 2 -1103 5 -1046 -65 -1188 -52 -104 -160
-212 -264 -263 -141 -69 -94 -67 -1307 -67 -694 0 -1100 -4 -1112 -10 -47 -25
-38 -123 12 -135 13 -3 529 -4 1148 -3 l1125 3 70 23 c117 40 220 99 300 174
119 111 189 229 226 383 18 76 19 126 19 1038 l0 957 44 0 c62 0 165 34 206
69 60 49 592 734 617 793 27 64 30 163 7 231 -19 58 -93 141 -148 169 -22 11
-42 22 -44 23 -2 1 45 76 104 166 131 201 144 227 144 304 0 143 -104 252
-250 263 -94 6 -149 -19 -240 -113 -65 -68 -71 -77 -68 -111 4 -47 43 -80 82
-70 15 4 55 35 89 70 69 71 100 84 158 67 67 -20 98 -96 64 -160 -28 -55 -406
-626 -413 -624 -12 3 -271 208 -272 214 0 3 52 62 115 130 103 111 115 128
115 161 0 44 -27 68 -76 68 -28 0 -46 -15 -140 -115 l-108 -115 -21 62 c-41
123 -94 208 -185 298 -165 164 -331 230 -580 230 -67 0 -111 4 -116 11 -13 22
-113 78 -175 99 -47 16 -99 23 -196 27 l-133 6 -31 55 c-17 31 -66 90 -109
132 -162 161 -407 233 -625 185z m256 -149 c168 -36 310 -153 388 -319 15 -30
31 -49 44 -51 12 -3 90 -7 172 -9 190 -6 241 -23 325 -107 100 -100 130 -240
79 -375 -30 -80 -111 -163 -194 -196 l-60 -24 -870 0 -870 0 -60 24 c-83 33
-164 116 -194 196 -31 82 -27 207 9 280 31 64 101 134 165 165 44 22 69 25
218 32 93 4 176 10 186 13 10 3 33 33 51 68 126 241 358 356 611 303z m1896
-1196 c43 -33 146 -113 228 -178 140 -110 150 -121 153 -154 2 -27 -3 -43 -17
-57 -42 -42 -64 -31 -276 135 -252 197 -255 200 -255 240 0 35 37 74 70 74 10
0 53 -27 97 -60z m683 -50 c75 -38 110 -134 77 -210 -8 -19 -137 -190 -286
-380 -293 -372 -305 -384 -392 -383 -48 1 -123 36 -117 54 2 5 73 99 158 209
l155 199 48 1 c154 1 263 182 193 318 -14 27 -12 31 45 120 33 51 65 92 70 92
5 0 27 -9 49 -20z m-657 -351 c56 -45 102 -87 101 -93 -1 -10 -413 -538 -1065
-1368 l-37 -47 -52 41 c-28 22 -49 46 -47 52 3 7 188 245 411 530 223 284 409
528 412 542 9 33 -22 76 -63 88 l-31 9 111 141 c108 139 147 186 154 186 2 0
49 -37 106 -81z m-1255 -1504 l163 -127 -34 -42 c-66 -79 -152 -108 -243 -81
-154 46 -203 223 -98 360 17 23 31 32 38 27 6 -5 84 -66 174 -137z"/>
        <path d="M1990 4735 c-64 -21 -140 -82 -176 -143 -102 -169 -34 -386 146 -471
45 -21 70 -26 135 -26 65 0 90 5 135 26 138 65 215 210 189 357 -35 197 -236
317 -429 257z"/>
        <path d="M839 3406 c-90 -32 -154 -92 -196 -181 -27 -60 -28 -62 -31 -302 -5
-282 4 -356 51 -434 38 -64 111 -121 182 -144 45 -14 95 -16 336 -13 l284 3
56 28 c66 32 132 99 162 165 21 45 22 61 22 347 l0 300 -26 55 c-31 66 -93
130 -157 161 -46 23 -54 24 -347 26 -228 2 -309 -1 -336 -11z m608 -147 c40
-15 73 -48 94 -94 16 -35 19 -68 19 -280 0 -255 -6 -296 -46 -344 -48 -57 -81
-62 -370 -59 -259 3 -261 3 -297 28 -20 13 -45 41 -57 62 -20 36 -21 49 -18
315 3 273 3 279 26 311 49 67 67 71 359 72 162 0 272 -4 290 -11z"/>
        <path d="M1344 3140 c-12 -5 -67 -81 -129 -181 l-108 -172 -31 35 c-17 19 -48
53 -68 76 -30 34 -43 42 -72 42 -45 0 -80 -41 -72 -83 5 -26 104 -154 185
-239 39 -42 76 -49 109 -20 30 25 292 448 292 471 0 33 -11 51 -41 66 -32 17
-36 17 -65 5z"/>
        <path d="M1932 3133 c-7 -3 -19 -17 -27 -33 -19 -36 -4 -83 31 -99 18 -8 197
-11 623 -11 590 0 599 0 625 21 34 27 36 77 3 107 l-23 22 -610 -1 c-335 0
-615 -3 -622 -6z"/>
        <path d="M1919 2742 c-33 -27 -30 -78 5 -109 l28 -24 319 3 c350 3 342 2 355
65 5 26 1 37 -19 57 l-26 26 -319 0 c-296 0 -321 -1 -343 -18z"/>
        <path d="M881 1990 c-71 -15 -127 -48 -180 -106 -82 -89 -86 -112 -86 -439 0
-269 1 -282 23 -337 29 -73 96 -141 170 -176 l57 -27 300 0 300 0 59 30 c65
33 122 92 158 163 22 45 23 57 26 325 4 310 -1 346 -61 433 -36 53 -108 107
-165 125 -46 15 -537 22 -601 9z m575 -162 c42 -23 81 -71 94 -116 8 -24 10
-125 8 -287 -3 -241 -4 -251 -26 -287 -13 -20 -40 -47 -60 -60 -36 -22 -46
-23 -291 -26 -217 -3 -261 -1 -297 13 -46 17 -100 71 -109 108 -3 12 -5 144
-3 294 3 256 4 273 24 299 30 41 68 66 111 75 21 4 146 7 278 6 204 -2 245 -5
271 -19z"/>
        <path d="M1327 1698 c-14 -13 -69 -94 -123 -182 l-98 -159 -29 34 c-109 125
-103 120 -143 117 -46 -4 -80 -43 -70 -81 3 -14 51 -79 106 -146 103 -124 130
-143 174 -123 28 13 306 456 306 489 0 31 -42 73 -74 73 -14 0 -36 -10 -49
-22z"/>
        <path d="M1915 1310 c-25 -28 -23 -76 4 -103 21 -22 28 -22 328 -25 327 -3
352 0 372 44 16 35 14 48 -10 78 l-20 26 -328 0 c-316 0 -329 -1 -346 -20z"/>
    </g>
</svg>